<svg xmlns="http://www.w3.org/2000/svg" width="480" height="720" viewBox="0 0 480 720" role="img" aria-label="Illustrated portrait of Adioz Eshitemi">
<style>

    .p-str0 {stroke:#0B0301;stroke-width:7.62;stroke-miterlimit:22.9256}
    .p-fil6 {fill:#030303}
    .p-fil4 {fill:#050505}
    .p-fil0 {fill:#0B0301}
    .p-fil10 {fill:#160801}
    .p-fil3 {fill:#1B1C1C}
    .p-fil14 {fill:#2C170A}
    .p-fil13 {fill:#623721}
    .p-fil17 {fill:#6C7072}
    .p-fil15 {fill:#6F4B32}
    .p-fil20 {fill:#878888}
    .p-fil7 {fill:#8C5536}
    .p-fil11 {fill:#9A6646}
    .p-fil1 {fill:#A36643}
    .p-fil2 {fill:#A66745}
    .p-fil9 {fill:#A76A47}
    .p-fil18 {fill:#AF7655}
    .p-fil19 {fill:#C3C4C4}
    .p-fil5 {fill:#CACACA}
    .p-fil16 {fill:#E8E6DB}
    .p-fil12 {fill:#F6F8F9}
    .p-fil8 {fill:#FCFCFC}
    .p-fil21 {fill:#261914;fill-rule:nonzero}
   
.hood-string { fill: none; stroke: #b98d34; stroke-width: 46; stroke-linecap: round; }
.hood-aglet { fill: url(#mark-steel-bright); stroke: #2f343a; stroke-width: 10; }
.hood-print { fill: url(#mark-gold-bright); font-family: Montserrat, -apple-system, "Segoe UI", Roboto, Helvetica, Arial, sans-serif; font-size: 300px; font-weight: 700; letter-spacing: 36px; text-anchor: middle; }
.hood-print-small { font-family: ui-monospace, SFMono-Regular, Menlo, Consolas, monospace; font-size: 150px; letter-spacing: 50px; }
.hood-cord-sway { transform-box: fill-box; transform-origin: 50% 0; animation: cord-sway 6s ease-in-out infinite alternate; }
.hood-cord-late { animation-delay: -1.4s; }
.leg-left, .leg-right { transform-origin: 32px 17.5px; animation: spread 6s cubic-bezier(0.34, 1.56, 0.64, 1) infinite; }
.leg-right { animation-name: spread-right; }
.arc { transform-origin: 32px 37.6px; animation: arc 6s cubic-bezier(0.34, 1.56, 0.64, 1) infinite; }
@keyframes cord-sway { from { transform: rotate(-1.4deg); } to { transform: rotate(1.4deg); } }
@keyframes spread { 0%, 40%, 100% { transform: rotate(0deg); } 55%, 85% { transform: rotate(6deg); } }
@keyframes spread-right { 0%, 40%, 100% { transform: rotate(0deg); } 55%, 85% { transform: rotate(-6deg); } }
@keyframes arc { 0%, 40%, 100% { transform: scaleX(1); } 55%, 85% { transform: scaleX(1.216); } }
@media (prefers-reduced-motion: reduce) { .hood-cord-sway, .leg-left, .leg-right, .arc { animation: none; } }
</style>
<defs>
  <linearGradient id="plate-metal" x1="0.41" y1="0" x2="0.59" y2="1">
    <stop offset="0" stop-color="#ecd089"/><stop offset="0.3" stop-color="#d6ab55"/><stop offset="0.6" stop-color="#c4973a"/><stop offset="0.85" stop-color="#b98d34"/><stop offset="1" stop-color="#cfa654"/>
  </linearGradient>
  <radialGradient id="plate-shine" cx="0.7" cy="0.5" r="0.5" gradientTransform="translate(0.7 0.5) scale(0.4 3) translate(-0.7 -0.5)">
    <stop offset="0" stop-color="#fff5d6" stop-opacity="0.62"/><stop offset="0.7" stop-color="#fff5d6" stop-opacity="0"/>
  </radialGradient>
  <filter id="brushed" x="0" y="0" width="100%" height="100%" color-interpolation-filters="sRGB">
    <feTurbulence type="fractalNoise" baseFrequency="0.0015 0.85" numOctaves="3" seed="11" result="noise"/>
    <feColorMatrix in="noise" type="saturate" values="0"/>
    <feComponentTransfer>
      <feFuncR type="linear" slope="1.3" intercept="-0.15"/><feFuncG type="linear" slope="1.3" intercept="-0.15"/><feFuncB type="linear" slope="1.3" intercept="-0.15"/><feFuncA type="table" tableValues="0.5 0.5"/>
    </feComponentTransfer>
    <feComposite in2="SourceGraphic" operator="in" result="grain"/>
    <feBlend in="grain" in2="SourceGraphic" mode="overlay"/>
  </filter>
  <linearGradient id="mark-steel-bright" x1="0" y1="0" x2="1" y2="1">
    <stop offset="0" stop-color="#ffffff"/><stop offset="0.38" stop-color="#c3c8ce"/><stop offset="0.55" stop-color="#8e959e"/><stop offset="0.78" stop-color="#d8dce1"/><stop offset="1" stop-color="#6c737c"/>
  </linearGradient>
  <linearGradient id="mark-gold-bright" x1="0" y1="0" x2="0.3" y2="1">
    <stop offset="0" stop-color="#fff1b8"/><stop offset="0.35" stop-color="#e9c460"/><stop offset="0.7" stop-color="#c4973a"/><stop offset="1" stop-color="#8f6718"/>
  </linearGradient>
  <filter id="mark-raise" x="-20%" y="-20%" width="140%" height="140%" color-interpolation-filters="sRGB">
    <feDropShadow dx="0" dy="-0.6" stdDeviation="0" flood-color="#fff" flood-opacity="0.45"/>
    <feDropShadow dx="0.6" dy="1.4" stdDeviation="0.8" flood-color="#000" flood-opacity="0.7"/>
  </filter>
  <filter id="inlay" x="-5%" y="-5%" width="110%" height="110%" color-interpolation-filters="sRGB">
    <feDropShadow dx="-0.24" dy="1" stdDeviation="1" flood-color="#000" flood-opacity="0.7"/>
  </filter>
  <filter id="portrait-cut" x="-5%" y="-5%" width="110%" height="110%" color-interpolation-filters="sRGB">
    <feColorMatrix type="matrix" values="0 0 0 0 0 0 0 0 0 0 0 0 0 0 0 -0.39 -0.767 -0.143 1.3 0" result="depth"/>
    <feComponentTransfer in="depth" result="matte"><feFuncA type="gamma" amplitude="1" exponent="2.2" offset="0"/></feComponentTransfer>
    <feFlood flood-color="#221404"/>
    <feComposite in2="matte" operator="in" result="floor"/>
    <feComponentTransfer in="matte" result="outside"><feFuncA type="table" tableValues="1 0"/></feComponentTransfer>
    <feOffset in="outside" dx="-1.2" dy="4.2"/>
    <feGaussianBlur stdDeviation="2.1" result="spill"/>
    <feFlood flood-color="#050200" flood-opacity="1"/>
    <feComposite in2="spill" operator="in"/>
    <feComposite in2="matte" operator="in" result="shade"/>
    <feOffset in="matte" dx="-0.5" dy="-1.6" result="above"/>
    <feFlood flood-color="#000000" flood-opacity="0.5"/>
    <feComposite in2="above" operator="in"/>
    <feComposite in2="matte" operator="out" result="rim"/>
    <feMerge><feMergeNode in="rim"/><feMergeNode in="floor"/><feMergeNode in="shade"/></feMerge>
  </filter>
  <clipPath id="plate-edge"><rect width="480" height="720" rx="26"/></clipPath>
</defs>
<g clip-path="url(#plate-edge)">
  <rect width="480" height="720" fill="url(#plate-metal)" filter="url(#brushed)"/>
  <rect width="480" height="720" fill="url(#plate-shine)" style="mix-blend-mode: screen"/>
  <g filter="url(#portrait-cut)">
    <svg width="480" height="720" viewBox="0 -700 6800 10200" preserveAspectRatio="xMaxYMin slice">
  
  <path class="p-fil0" d="M4922.91 1573.73l-47.62 49.57c95.71,20.01 236.67,22.97 287.59,96.64 31.85,7.34 10.54,-8.51 47.89,21.1 23.88,18.93 19.28,24.53 22,29.22 112.55,51.68 223.65,260.87 406.03,204.88 41.21,-126.15 -133.25,-216.36 -266.18,-322.05 -266.37,-211.79 -259.82,-77.62 -449.71,-79.36z"/>
  <path class="p-fil0" d="M3503.97 2382.83c-42.57,23.05 -230.8,-153.91 -238.88,-154.01 -2.27,-0.02 -5.57,-0.83 -7.5,0.34 183.53,174.87 481.54,435.88 607.48,711.56 25.86,56.61 128.38,268.06 133.33,318.45 37.42,45.29 75.99,114.04 111.06,168.24 34.67,53.6 77.28,112.42 117.2,160.09 79.92,95.44 188.93,188.27 294.39,262.93 32.1,31.72 35.95,27.3 73.63,55.98 25.21,19.18 50.09,44.18 77.55,68.48 56.77,50.25 91.52,94.7 140.06,149.92 15.81,-64.05 93.43,-78.1 43.19,-129.51 -27.13,-53.17 -7.19,-5.6 6.76,-28.76 70.22,15.69 23.43,17.79 90.64,12.68 -126.68,-89.78 -702.55,-171.82 -1023.06,-1046.28 -49.04,-133.78 -146.45,-445.92 -41.03,-582.32 -10.86,-125.72 80.08,-232.15 74.65,-359.9 -96.22,-10.35 -152.44,-15.76 -179.03,-123.2 -25.14,-101.59 -0.67,-186.87 8.41,-280.55 17.29,-142.74 74.04,-395.88 191.28,-482.43 143.49,-156.61 271.01,18.16 259.3,178.12l45.26 84.4c52.78,-384.04 -153.76,-228.77 0.99,-469.87 30.69,-82.61 208.02,-331.58 251.7,-356.24 176.04,-439.89 1102.95,-487.34 1587.9,-125.01 207.48,155.01 465.49,524.86 487.59,798.58l-400.81 -215.3c-339.33,-186.09 -778.54,-608.51 -995.63,-436.77 -78.82,62.36 -89.22,117.63 -142.55,159.82 -3.37,20.13 -18,55.05 -18.41,61.51 -3.17,50.93 -25.92,32.31 19.21,49.78 0.39,-46.96 30.24,-92.13 51.04,-127.69 27.33,-46.73 41.13,-77.9 79.27,-86.58 17.57,-27.41 -11.56,-9.76 40.2,-41.87 15.18,-9.42 37.96,-15.12 54.9,-17.78 214.72,-33.64 604.69,291.98 610.24,302.73 163.9,89.11 491.79,249.21 630.4,356.47 155.54,24.97 143.58,368.94 124.63,547.54 -11,103.73 -30.26,186.79 -63.57,283.1 -23.68,68.48 -84.54,185.72 -86.67,242.23l-29.91 63.49 -23.61 -28.7c-0.97,-3.42 -0.71,-12.6 -2.47,-18.61 -16.32,-90.94 -347.37,-196.85 -483.24,-86.21l66.72 92.97c63.48,3.19 127.15,23.77 189.92,36.47 100.03,20.27 133.9,9.5 174.55,89.54l15.54 13.58c-13.12,57.03 -62.48,139.54 -103.18,175.89 2.7,18.72 -49.87,232.28 -92.86,279.39 2.52,72.28 -60.21,159.91 -86.05,222.87l-20.7 18.79c-16.2,43.25 -26.29,55.1 -51.38,91.71 -25.35,36.99 -27.16,51.8 -53.88,59.95 -21.8,55.08 -9.16,30.15 -36.83,45.75 -15.55,64.9 -310.69,378.01 -406.28,399.56 -26.59,41.46 -109.67,106.2 -173.45,116.74 -26.36,39.94 -6.62,13.42 -39.18,40.42 -11.53,9.54 -14.96,10.32 -26.67,20.04 -16.76,13.9 -310.76,46.94 -323.03,59.95l71.23 15.97 60.24 -2.41 218.02 -30.62c97.09,-23.02 314.25,-192.84 392.32,-255.11 71.55,-57.08 103.64,-89.26 162.29,-159.07 27.45,-32.66 129.18,-161.04 162.59,-181.93 4.89,-29 119.71,-200.97 155.71,-272.68 40.51,-80.71 105.25,-227.58 113.54,-318.56 11.42,-55.78 4.2,-60.81 47.27,-88.9l26.35 -61.39c34.49,-69.95 176.94,-375.38 211.37,-414.21l94.95 -345.55c15.42,-144.32 28.43,-253.36 12.02,-401.91 -12.92,-116.97 -56.2,-271.39 -61.65,-355.62 -17.33,-21.57 2.26,13.77 -20.91,-29.26 -0.28,-0.53 -12.24,-29.32 -13.14,-31.99 -10.91,-32.76 -9.1,-32.26 -14.14,-66.45 -64,-206.62 -214.96,-399.81 -324.49,-515.17 -92.35,-97.26 -339.02,-285.61 -533.6,-305.43 -22.15,-3.71 -46.52,-5.67 -68.74,-12.7 -51.81,-16.4 -28.85,-13.37 -41.68,-22.66 -787.73,-67.67 -1016.38,-38.11 -1505.49,859.33 -284.28,-57.15 -390.48,370.89 -436.15,600.39 -13.71,68.79 14.8,221.49 14.78,351.07 -0.03,205.58 -117.68,380.61 -231.82,442.39z"/>
  <path class="p-fil1" d="M3800.72 2482.88l61.86 -320.14c31.71,-32.89 25.69,-21.21 42.93,-101.89l-139.44 -60.03 -27.28 74.06c-19.97,36.42 -26.43,119.59 -47.45,153.09 -33,52.57 -139.87,141.76 -156.43,185.3 38.33,37.4 170.37,181.39 196.23,237.6l54.06 66.37 15.52 -234.36z"/>
  <path class="p-fil2" d="M5757.29 3075.58c-104.94,-13.1 -43.41,-11.65 -91.7,-38.45 -0.14,-0.08 16.98,-24.94 -41.41,-10.78 -30.43,7.38 -38.67,-14.48 -30.98,13.41 -35.15,-22.99 -73.34,-44.52 -110.62,-63.94 101.58,22.45 135.76,-15.63 247.11,-4.46 -18.56,46.89 -8.7,31.25 -50.12,54.47 206.84,-20.4 60.13,-182.06 125.61,-235.81l20.23 45.28c11.13,49.3 31.09,99.89 11.55,154.2 -16.57,46.04 -45.49,53.41 -79.67,86.08zm-439.16 -298.73c54.49,75.07 74.23,28.37 92.18,157.28 -24.22,-8.75 -33.06,-10.17 -37.09,-11.36l-2.6 -1.19c-2.77,-2.21 -2.64,-7.66 -23.67,-32.53 -91.92,-108.66 -91.58,-54.9 -191.52,-79.79 -87.25,-69.8 -64.76,-211.38 58.24,-236.29 -31.69,66.44 -76.82,81.24 -52.51,184.15 32.61,9.11 116.54,20.37 156.97,19.73zm563.02 -510.67l38.96 -5.34 -18.64 30.63c-37.13,46.96 -53.73,39.48 -76.49,98.39 -33.82,61.51 -38.01,173.04 -26.88,247.4 -2.41,46.16 -17.42,61.85 -0.83,77.39 -52.78,-10.84 -38.89,-4.06 -44.27,-75.77 11.57,-184.99 -30.1,-175.62 62.89,-335.07 23.36,-6.96 -0.28,3.78 32.47,-16.79 28.95,-18.19 4.94,-7.56 32.79,-20.84zm165.43 48.47l-66.72 -92.97c135.87,-110.64 466.92,-4.73 483.24,86.21l29.89 10.32c13.44,-54.83 -2.37,-3.44 26.1,-26.5 2.13,-56.51 62.99,-173.75 86.67,-242.23 33.31,-96.31 52.57,-179.37 63.57,-283.1 18.95,-178.6 30.91,-522.57 -124.63,-547.54 -138.61,-107.26 -466.5,-267.36 -630.4,-356.47 -5.55,-10.75 -395.52,-336.37 -610.24,-302.73 -16.94,2.66 -39.72,8.36 -54.9,17.78 -51.76,32.11 -22.63,14.46 -40.2,41.87 -38.14,8.68 -51.94,39.85 -79.27,86.58 -20.8,35.56 -50.65,80.73 -51.04,127.69l-70.52 191.94 -4.16 37.36c-110.04,107.75 -254.37,52.34 -407.76,176.15 -56.23,45.39 -96.05,91.67 -139.98,153.07 -45.45,63.52 -53.12,116.63 -128.23,145.63 -16.34,-15.33 -1.91,-13.86 -43.83,-32.08 -1.26,-72.06 13.82,-57.91 -10.73,-124.01 -19.68,-52.98 -19.88,-30.08 -30.04,-98.96 11.71,-159.96 -115.81,-334.73 -259.3,-178.12 -117.24,86.55 -173.99,339.69 -191.28,482.43l21.49 92.26c63.06,15.3 7.02,4.4 29.65,-13.75 -118.57,-106.41 170.37,-531.84 170.37,-531.85 24.3,-33.62 22.65,-31.11 73.08,-34.82 66.13,87.31 84.9,245.14 67.34,387.01 -11.62,93.96 -32.07,99.74 -83.86,149.18 -61.89,59.06 -39.64,75.52 -48.49,175.24l-45.91 6.97 20.41 39.16c-55.9,149.11 74.56,69.05 -17.76,131.42l-15.7 2.93c5.43,127.75 -85.51,234.18 -74.65,359.9 42.06,280.3 -69.3,96.48 138.93,617.64 25.96,64.97 47.75,132.97 95.63,173.89 7.14,58.12 112.12,195.79 152.06,252.05 173.28,244.12 514.71,413.98 786.73,476.04 83.75,96.79 247.04,20.39 339.84,-5.35 63.78,-10.54 146.86,-75.28 173.45,-116.74 95.59,-21.55 390.73,-334.66 406.28,-399.56 27.67,-15.6 15.03,9.33 36.83,-45.75 26.72,-8.15 28.53,-22.96 53.88,-59.95 25.09,-36.61 35.18,-48.46 51.38,-91.71l20.7 -18.79c25.84,-62.96 88.57,-150.59 86.05,-222.87 42.99,-47.11 95.56,-260.67 92.86,-279.39 40.7,-36.35 90.06,-118.86 103.18,-175.89l-15.54 -13.58c-40.65,-80.04 -74.52,-69.27 -174.55,-89.54 -62.77,-12.7 -126.44,-33.28 -189.92,-36.47zm-2029.45 -916.1l70.81 -11.24c38.38,-27.34 16.35,30.5 26.05,-57.27 3.71,-33.56 -17.08,-135.85 -40.73,-175.82 -146.46,72.45 -221.42,339.51 -226.21,496.87 32.82,-42.91 28.66,-89.08 21.73,-145.38 22.32,46.7 -1.3,80.8 45,125.57 -15.35,-149.94 41.7,-156.39 103.35,-232.73zm1867.75 1071.2l13.64 -18.41c-83.45,36.57 -13.37,15.5 -42.66,-25.08 55.06,-20.32 120.54,-63.59 204.36,-68.44 109.15,-6.33 146.11,42.1 178.91,115.84 17.9,46.86 37.88,57.67 50.37,122.93l-28.48 32.55 -30.85 -53.87c-0.64,84.22 -47.57,71.12 -136.13,59.38l3.04 -32.14c-90.78,22.07 -136.4,-15.82 -155.28,-96.68l-36.81 1.65 -20.11 -37.73zm50.39 166.94l-1.16 -29.84c74.47,74.59 85.16,48.65 123.22,84.86 30.06,28.59 4.05,1.85 27,35.31l-64.79 -5.13c-28.68,-28.2 -9.89,-5.79 -21.88,-31.08 -49.41,-29.25 -31.3,-8.79 -62.39,-54.12zm-398.39 805.76c-54.43,51.29 -12,31.8 -38,71.27l-207.04 15.23c35.97,27.17 101.5,16.46 158.09,17.95 -30.33,33.13 -46.64,31.27 -76.37,44.08l-30.54 -0.07c-22.62,24.68 -14.91,23.58 -58.45,35.22 -22.49,6.01 -37.03,5.27 -57.13,5.55 -98.1,-13.44 -148.26,-46.23 -221.94,-91.24 -69.32,-42.34 -101.38,-47.98 -109.5,-144.6l-43.7 -93.07c9.99,-16.35 -24.8,-14.9 27.13,-12.03 -2.42,-3.05 -6.86,-6.16 -8.57,-7.95 -16.44,-17.13 -80.17,-121.13 3.2,-148.68 -62.15,-74.24 -80.17,-16.55 -123.25,-94.33 65.95,-37.09 61.18,32.01 135.02,29.57 22.13,17.22 43.02,28.2 61.41,28.01 24.16,-0.25 348.46,218.24 589.64,345.09zm-470.16 -1629.46l110.71 19.72c38.99,45.41 52.23,16.23 90.33,74.9 48.3,15.61 47.19,32.05 92.71,42.72l13.13 40.72 14.41 -3.19 15.77 29.68c4.48,15.57 17.2,165.36 -3.84,210.56 -130.05,-8.17 -98.45,34.93 -178.63,52.38 -81.96,17.84 -129.95,-16.97 -169.2,-44.23 11.91,22.24 0.2,17.69 15.62,-3.72 -160.82,-63.35 -126,-144.23 -176.19,-314.24 -5.63,-28.25 -6.19,-52.05 -10.45,-68.76 -9.31,-36.43 -8,20 -13.43,-40.67l199.06 4.13zm166.05 -42.73c-2.72,-4.69 1.88,-10.29 -22,-29.22 -37.35,-29.61 -16.04,-13.76 -47.89,-21.1 -50.92,-73.67 -191.88,-76.63 -287.59,-96.64l47.62 -49.57c189.89,1.74 183.34,-132.43 449.71,79.36 132.93,105.69 307.39,195.9 266.18,322.05 -182.38,55.99 -293.48,-153.2 -406.03,-204.88z"/>
  <path class="p-fil0" d="M4479.46 3867.76c11.01,27.06 245.79,353.33 292.53,493.35 19.1,57.2 38.26,141.38 76.88,185.92 -9.09,-83.65 -5.7,-17.36 13.37,-37 72.06,68.31 60.92,79.42 187.01,76.09 -71.55,-228.84 -115.58,-305.78 -236.96,-461.31 -48.54,-55.22 -83.29,-99.67 -140.06,-149.92 -27.46,-24.3 -52.34,-49.3 -77.55,-68.48 -37.68,-28.68 -41.53,-24.26 -73.63,-55.98 -15.92,37.07 42.04,52.05 -41.59,17.33z"/>
  <path class="p-fil0" d="M3832.28 9502.96c12.45,-29.44 3.77,-183.13 64.21,-331.21 68.78,-168.53 141.15,-300.72 100.32,-377.16 -72.31,-135.38 111.17,-93.69 160.67,-73.65 180.3,72.99 465.32,19.29 807.16,56.93 19.83,2.18 946.46,199.04 1285.64,172.82 73.11,-5.65 -1233.85,-3733.09 -1484.48,-4194.4 -81.34,-149.71 -257.28,-177.08 -450.72,-163.93 -173.45,11.79 -683.5,-589.89 -1170.26,-1045.94 -135.07,-126.55 -359.22,-288.84 -476.74,-351.21 -219.64,-116.55 -197.29,55.36 -158.84,64.17 265.89,60.9 683.66,714.18 778.52,1071.73 10.36,39.03 108.47,308.05 155.89,669.42 34.71,264.54 53.39,626.47 26.05,686.65l-337.29 1508.48c-16.36,16.77 -390.61,1455.35 -608.08,2307.3l1307.95 0z"/>
  <path class="p-fil0" d="M1885.26 5780.87c-28.6,-114.09 -60.79,-291.02 -108.63,-394.2 0.39,30 -16.9,38.08 2.65,-9.08 -74.18,4.47 -19.77,47.92 -58.37,-43.9 -0.09,1.32 -3.8,44.94 -3.78,45.13 7.13,125.94 -10.83,54.41 -10.83,144.81 -73.21,-105.36 1.38,47.1 -102.28,58.44 7.18,86.34 43.83,36.79 43.83,160.72 99.62,21.32 156.4,84 233.7,58.45l3.71 -20.37z"/>
  <path class="p-fil0" d="M2255.73 4248.12c-29.66,-46.76 -52.78,-55.49 -82.25,-61.48 -16.87,-26.66 -21.32,-33.89 -48.86,-60.47 -30.37,-29.32 -38.01,-33.86 -74.23,-51.2 -188.39,-257.77 -256.25,-163.97 -495.67,-90.24 -380.59,117.22 -652.19,318.72 -928.76,590.2 -416.28,408.6 -382.26,2145.83 -464.57,2951.29 -10.89,106.56 -53.73,260.7 -42.12,352.79 -65.51,93.8 -81.83,760.84 -59.66,913.49 28.77,198.05 22.14,266.58 19.71,471.51 -0.73,60.84 3.68,154.21 17.9,238.95l375.25 0c0.03,-17.12 -7.6,-40.34 -22.71,-78.22 88.65,1.97 111.22,37.1 204.55,29.22l0 49 1544.07 0c-23.98,-143.03 -118.3,-339.71 -434.22,-793.21 -46.09,-66.15 -93.03,-143.47 -138.15,-212.62 -179.61,-286.84 -104.2,-218.78 -80.51,-227.27 3.32,41.81 515.2,741.33 551.07,767.41 124.99,90.91 215.99,-860.53 224.62,-927.45 16.02,-48.61 16.31,-17.58 8.23,-72.39 46.04,55.99 7.88,218.61 8.05,288.21 143.72,-275.95 42.61,-846.61 -36.43,-1149.63 -33.15,-127.12 -266.43,-973.96 -309.62,-1017.21 0.11,-4.22 -203.96,-763.78 -238.78,-1000.52 -1.21,-93.51 -7.08,-39.78 26.64,-53.02 -49.36,103.17 680.57,2233.73 695.5,2751.39 127.73,-261.2 199.42,-442.52 270.61,-779.35 45.76,-216.51 129.59,-758.97 95.65,-966.26 -41.07,-1842.51 133.91,-381.29 120.03,-251.54 -14.57,136.19 -16.63,89.19 6.44,114.53 42.27,-187.98 123.54,-284.18 103.36,-536.22 -15.2,-190 -85.6,-352.06 -165.95,-500.05 -118.53,-218.32 -438.79,-599.83 -649.19,-689.64z"/>
  <path class="p-fil3" d="M4237.02 3828.84c36.42,129.99 167.8,258.73 273.49,330.41 -12.96,-86.55 -69.79,-177.47 -115.62,-232.26 -1.46,1.41 -25.65,128.92 -70.46,-74.48 -0.05,4.86 -14.18,20.01 -39.05,6.85 -46.04,-24.34 23.19,5.45 -48.36,-30.52z"/>
  <path class="p-fil3 p-str0" d="M2815.36 5158.28l9.24 215.23 16.44 737.53c70.53,-134.87 -39.05,-866.47 4.9,-949.03 146.58,268.45 30.62,661.46 66.22,957.02 15.85,-41.47 37.54,-95.62 55.35,-145 -23.07,-25.34 -21.01,21.66 -6.44,-114.53 78.56,-734.37 -125.02,-941.52 -145.71,-701.22z"/>
  <path class="p-fil0" d="M3471.21 3056.83l-7.4 -62.3c99.81,44.71 256.05,381.08 346.38,418.38 -5.49,-34.6 -4.59,-29.46 -16.23,-51.62l-266.3 -387.23c-38.02,-43.98 -86.48,-126.39 -127.24,-181.91 -37.83,-51.52 -125.44,-135.45 -150.21,-181l-96.31 -21.51c-12.47,118.2 205.12,330.18 317.31,467.19z"/>
  <g>
   <path class="p-fil4" d="M4936.68 1898.11l78.65 -1.41 -13.93 39.45c-23.62,121.52 24.08,185.15 150.95,163.28 43.73,-12.93 44.12,-10.07 60.43,-62.27l-1.1 -47.03 45.72 -41.44c-42.64,-24.53 -79.06,-66.03 -142.31,-81.52 -67.19,-16.45 -144.88,-7.91 -207.9,6.72 9.54,30.34 -4.77,15.91 29.49,24.22z"/>
   <path class="p-fil5" d="M5154.46 2017.15c2.86,-3.29 38.79,4.42 0,-46.98 -27.45,33.53 -21.02,-54.46 -13.42,19.28 3.58,34.7 -12.05,6.11 13.42,27.7z"/>
  </g>
  <path class="p-fil0" d="M866.14 4119.87c-15.72,53.85 -16.69,20.89 -5.99,70.46 70.48,8.38 67.15,40.39 71.77,-57.84 27.29,23.3 68.34,41.51 79.34,45.93 104.8,-68.24 191.85,-132.35 334.1,-184.62 702.21,-257.97 292.88,12.12 609.98,-441.91 115.75,-165.73 234.3,-218.6 258.33,-256.33 -611.37,-54.11 -978.09,358.13 -1334.75,800.18 -15.96,22.92 -5.62,3.29 -12.78,24.13z"/>
  <path class="p-fil0" d="M4270.43 9502.96c1427.14,0 1721.62,-4.84 2080.47,0.15l-32.66 -223.48 -37.28 -207.7c-32.47,-75.02 -64.89,-63.38 -152.94,-79.84 -473.22,-88.49 -2023.32,-236.8 -2061.01,-203.32 -93.56,83.07 2.98,366.39 -55.79,714.19l259.21 0z"/>
  <path class="p-fil0" d="M3392.4 5439.03c28.72,-850.43 -440.69,-1872.04 -589.07,-1887.95l-6.93 -3.72c12.74,46.94 74.01,113.31 106.69,179.78 250.03,508.43 377.99,1229.58 253.19,1766.63 -7.61,132.97 -112.72,453.57 -157.37,578.52 -27.47,76.81 -80.08,193.27 -93.92,270.62 -12.71,71.03 -30.25,303.2 -12.74,355.93 -17.34,33.25 -200.59,866.43 -200.64,871.88 -31.61,32.84 -100.79,225.55 -179.91,350.32 -73.72,116.26 -65.14,301.44 -109.23,432.06 -151.56,448.96 -40.03,360.11 -142.74,646.76 -31.04,86.6 -57.39,114.18 -93.35,191.1 35.76,125.28 81.21,183.38 100.65,312l190.19 0 210.52 -791.42 239.96 -923.15c27.69,-48.34 119.57,-449.12 140.88,-540.49 44.29,-189.94 89.46,-379.81 142.89,-574.72 100.11,-365.17 186.57,-837.83 200.93,-1234.15z"/>
  <g>
   <path class="p-fil0" d="M1011.26 4178.42c-11,-4.42 -52.05,-22.63 -79.34,-45.93 -4.62,98.23 -1.29,66.22 -71.77,57.84 -10.7,-49.57 -9.73,-16.61 5.99,-70.46 -116.68,56.1 -340.68,429.59 -347.59,501.73 7.24,-72.41 403.26,-377.84 492.71,-443.18z"/>
  </g>
  <path class="p-fil0" d="M2999.22 4332.56l0.85 -28.94c33.77,65.37 64,162.68 107.6,228.04 -2.66,-66.47 -12.66,-135.4 -28.04,-203.3 -11.91,-52.52 -27.48,-140.12 -64.39,-181l15.82 72.92c-110.03,-73.11 -44.29,-63.02 -120.49,-110.08 9.6,72.21 38.74,176.18 88.65,222.36z"/>
  <path class="p-fil0" d="M6343.95 9502.96c-6.58,-113.79 -35.51,-249.84 -55.44,-326.69 -58.2,-76.78 -643.36,-138.13 -716.52,-114.99 -60.41,10.34 -22.09,12.01 -96.02,-1.82l27.13 49.47c37.22,127.97 -92.64,96.64 -114.86,96.64 125.96,178.94 141.87,13.23 102.28,175.33 85.89,57.52 121.51,80.28 139.01,122.06l136.09 0c-9.42,-126.14 -43.71,-65.35 -70.56,-165.89 115.3,-172.18 97.33,-60.75 301.71,-137.19 61.06,-22.84 88.67,-13.64 136.63,5.69 23.49,68.91 -13.03,65.01 35.41,126.18 46.21,58.33 91.73,53.59 37.61,133.35 -9.08,13.38 -16.89,25.96 -23.64,37.86l161.17 0z"/>
  <path class="p-fil0" d="M2999.22 4332.56c-49.91,-46.18 -79.05,-150.15 -88.65,-222.36 76.2,47.06 10.46,36.97 120.49,110.08l-15.82 -72.92c2.79,-137.69 -199.09,-594.8 -499.57,-762.16 -188.32,-104.89 -219.94,-131.62 -417.41,61.42 -65.84,64.36 -219.27,272.47 -250.64,396.76 475.97,361.75 1179.25,854.17 1257.06,1484.79 71.22,-110.78 33.93,-429.9 13.25,-541.16 -29.65,-159.56 -91.01,-319.43 -118.71,-454.45z"/>
  <path class="p-fil0" d="M3938.33 3259.01c35.83,22.55 38.77,23.82 60.07,0.16 -4.95,-50.39 -107.47,-261.84 -133.33,-318.45 -125.94,-275.68 -423.95,-536.69 -607.48,-711.56l-2.13 -0.9c-21.23,-2.17 -40.1,-10.55 -55.04,-23.16l-2.22 -0.94c34.28,39.06 80.71,67.88 119.08,101.28 181.69,158.15 355.69,453.53 458.97,681.88 32.12,71.04 111.23,253.03 162.08,271.69z"/>
  <path class="p-fil0 p-str0" d="M654.31 9502.96l0 -49c-93.33,7.88 -115.9,-27.25 -204.55,-29.22 15.11,37.88 22.74,61.1 22.71,78.22l181.84 0z"/>
  <g>
   <path class="p-fil0" d="M4138.01 3746.86c-7.78,-108.84 -134.76,-298.72 -201.85,-388.79 -61.13,-111.05 -225.82,-431 -291.38,-512.98 -2.92,-48.73 -49.91,-129.27 -78.19,-175.05 -36.55,-59.17 -65.48,-119.5 -114.8,-154.12 -26.38,-109.48 -331.16,-305.7 -414,-354.67 -183.78,-108.63 -379.65,-149.58 -622.77,-178.55 -71.08,-24.07 -368.24,-49.46 -457.4,-6.95 -38.93,18.57 -756.03,725.84 -774.81,752.06 -50.68,66.94 -138.95,213.55 -122.6,314.58 -44.5,147.86 -5.93,318.11 15.2,477.6 8.26,63.93 19.5,160.07 46.45,204.56l215.38 -217.23c-30.29,-314.34 84.91,-631.92 339.83,-721.16 28.16,27.1 12.25,-14.32 8.22,31.41 -54.05,38.3 -165.95,140.95 -178.35,205.53 -26.01,19.13 -1.91,-7.45 -33.64,31.7 -9.63,11.89 -20.15,30.68 -27.71,45.27 -19.31,37.27 -28.12,52.88 -26.6,96.34 -2.5,3.38 -7.13,3.6 -7.67,9.99 -0.55,6.37 -5.36,8.07 -5.91,11.05 -6.56,35.9 -4.6,10.26 -1.15,42.88 -23.12,35.85 -23.26,160.71 -27.02,209.39l205.94 -162.79c-27.28,-11.48 -57.55,-22.56 -92.59,-36.84l4.16 -40.6 9.15 -11.92c251.75,-26.25 264.13,-65.02 472.06,-128.85 632.73,-194.21 971.59,227.19 1577.84,704.11 201.51,158.52 516.48,596.71 688.13,671.68 92.72,40.49 223.06,61.01 293.83,51.87 70.51,-9.11 188.09,-199.64 -139.56,-321.98l-258.19 -447.54zm-1341.61 -199.5l6.93 3.72c-108,-191.82 -344.08,-246.32 -398.33,-306.75 68.79,-73.65 76.51,-54.92 95.39,-118.85 -269.81,-26.59 -635.3,29.83 -822.01,187.06 320.87,-83.46 605.85,-138.25 909.04,57.59 88.5,57.17 131.31,128.2 208.98,177.23z"/>
  </g>
  <path class="p-fil0" d="M5202.59 5454.71c46.54,222.27 992.81,2966.29 1053.16,3305.82 30.16,169.72 -160.27,182.34 5.36,189.91 134.32,-141.32 55.59,-738.68 20.16,-916.21 -58.37,-292.55 -643.01,-2977.59 -946.58,-3640.73 -37.52,-81.97 -113.07,-229.27 -192.73,-303.54 -52.29,-48.74 -121.96,-147.66 -168.24,-94.41 -12.6,14.49 -199.33,-53.72 -304.79,-139 -154.39,-124.84 -264.63,-130.21 -256.31,-39 2.71,29.66 78.33,159.33 168.07,308.44 130.29,216.48 291.31,473.92 307.26,525.49 113.35,366.47 330.57,799.34 314.64,803.23z"/>
  <path class="p-fil6" d="M5958.25 2441.67l-18.33 30.84 1.88 33.32c18.88,80.86 64.5,118.75 155.28,96.68 41.99,-29.81 33.73,-14.86 46.51,-62.14l2.08 -32.47 -28.91 3.31c-63.63,3.47 -29.87,-0.53 -39.59,-26.64l32.26 -11.3c3.53,-1.86 9.07,-8.56 10.57,-5.62 1.45,2.83 8.04,-4.59 9.9,-5.97 69.68,-51.35 -34.84,36.12 24.83,-20.73 -47.81,-58.05 -156.94,-50.59 -229.96,-30.99l25.64 24.13c1.18,-2.53 4.86,5.5 7.84,7.58z"/>
  <path class="p-fil7" d="M5227.44 3631.68c20.1,-0.28 34.64,0.46 57.13,-5.55 43.54,-11.64 35.83,-10.54 58.45,-35.22 -108.89,-2.54 -168.25,-22.95 -251.34,-62.98 -42.62,-20.52 -62.92,-33.91 -101.16,-60.69 -35.53,-24.88 -53.64,-51.5 -94.52,-71.4 8.12,96.62 40.18,102.26 109.5,144.6 73.68,45.01 123.84,77.8 221.94,91.24z"/>
  <path class="p-fil7" d="M5067.73 2232.53c73.85,25.38 94.52,21.78 174.09,9.34 -4.41,-3.99 -10.92,-14.61 -14.44,-10.49 -150.07,-68.09 -160.59,-4.79 -226.97,-121.27 58.92,-5.66 38.6,-16.16 81.07,10.9l53.07 -10.87c22.64,6.85 17.8,11.95 17.8,-10.71 -126.87,21.87 -174.57,-41.76 -150.95,-163.28 -32.61,13.76 -21.59,18.65 -17.46,54.92l-19.42 37.71c-26.66,-25.75 -14.64,28.18 -24.16,-34.86l-16.04 -75.32 -32.78 -0.31c50.19,170.01 15.37,250.89 176.19,314.24z"/>
  <path class="p-fil7" d="M4891.13 3069.07c52.88,61.52 515.58,291.19 697.33,330.96l2.31 37.38c35.95,-8.95 34.94,-1.78 53.84,11.9 -10.36,-87.73 -48.12,-142.41 -95.38,-190.7 -65.97,-67.44 -90.78,-50.85 -190.65,-78.44 -17.66,38.93 17.99,33.04 -44.41,8.68 -39.94,-15.58 -39.01,-67.22 -140.8,-94.35 -117.12,-31.21 -185.16,-1.98 -282.24,-25.43z"/>
  <path class="p-fil7" d="M4952.88 3979.22l84.77 7.48c144.56,6.15 202,-37.78 271.99,-37.08 12.27,-13.01 9.73,-10.37 26.49,-24.27 11.71,-9.72 15.14,-10.5 26.67,-20.04 32.56,-27 12.82,-0.48 39.18,-40.42 -92.8,25.74 -256.09,102.14 -339.84,5.35 -272.02,-62.06 -613.45,-231.92 -786.73,-476.04 -39.94,-56.26 -144.92,-193.93 -152.06,-252.05 -47.88,-40.92 -69.67,-108.92 -95.63,-173.89 -208.23,-521.16 -96.87,-337.34 -138.93,-617.64 -105.42,136.4 -8.01,448.54 41.03,582.32 320.51,874.46 896.38,956.5 1023.06,1046.28z"/>
  <path class="p-fil8" d="M5212.78 2037.16c-16.31,52.2 -16.7,49.34 -60.43,62.27 0,22.66 4.84,17.56 -17.8,10.71l42.16 50.33c2.13,1.93 6.65,4.57 9.68,7.22 44.79,-4.39 78.09,3.6 114.26,23.66l45.79 4.01 -3.76 -36.08c-20.11,-70.59 -36.72,-118.28 -84.03,-150.2 -44.67,6.46 1.02,-6.88 -30.37,10.34 -1.95,1.07 -6.69,10.96 -8.12,8.06 -1.53,-3.09 -4.9,6.47 -7.38,9.68z"/>
  <path class="p-fil9" d="M3847.05 1651.09l-3.09 14.39c-22.63,18.15 33.41,29.05 -29.65,13.75l-21.49 -92.26c-9.08,93.68 -33.55,178.96 -8.41,280.55 26.59,107.44 82.81,112.85 179.03,123.2l15.7 -2.93c92.32,-62.37 -38.14,17.69 17.76,-131.42l-20.41 -39.16c-4.11,-82.73 -9.75,-148.68 -62.71,-185.93 -46.3,-44.77 -22.68,-78.87 -45,-125.57 6.93,56.3 11.09,102.47 -21.73,145.38z"/>
  <path class="p-fil10" d="M6109.43 2473.27l7.33 37.94 28.91 -3.31 11.2 -27.53 20.38 25c33.09,23.29 41.75,20.31 52.92,69.9l30.85 53.87 28.48 -32.55c-12.49,-65.26 -32.47,-76.07 -50.37,-122.93l-84.4 -32.71c-59.67,56.85 44.85,-30.62 -24.83,20.73 -1.86,1.38 -8.45,8.8 -9.9,5.97 -1.5,-2.94 -7.04,3.76 -10.57,5.62z"/>
  <path class="p-fil10" d="M4896 3395.84c40.88,19.9 58.99,46.52 94.52,71.4 38.24,26.78 58.54,40.17 101.16,60.69 83.09,40.03 142.45,60.44 251.34,62.98l30.54 0.07c29.73,-12.81 46.04,-10.95 76.37,-44.08 -56.59,-1.49 -122.12,9.22 -158.09,-17.95 -145.97,-0.63 -375.44,-161.61 -412.41,-238.21 -51.93,-2.87 -17.14,-4.32 -27.13,12.03l43.7 93.07z"/>
  <g>
   <path class="p-fil10" d="M4014.33 1133.63c0,0.01 -288.94,425.44 -170.37,531.85l3.09 -14.39c4.79,-157.36 79.75,-424.42 226.21,-496.87 23.65,39.97 44.44,142.26 40.73,175.82 -9.7,87.77 12.33,29.93 -26.05,57.27l-70.81 11.24c-61.65,76.34 -118.7,82.79 -103.35,232.73 52.96,37.25 58.6,103.2 62.71,185.93l45.91 -6.97c8.85,-99.72 -13.4,-116.18 48.49,-175.24 51.79,-49.44 72.24,-55.22 83.86,-149.18 17.56,-141.87 -1.21,-299.7 -67.34,-387.01 -50.43,3.71 -48.78,1.2 -73.08,34.82z"/>
   <path class="p-fil7" d="M3985.6 1659.19c127.99,-88.3 128.49,-129.82 129.64,-226.79 -78.1,13.14 -168.76,52.6 -163.69,145.91 2.7,49.55 19.01,61.4 34.05,80.88z"/>
  </g>
  <path class="p-fil10" d="M4874.06 3134.11c78.44,7.62 251.81,116.2 321.83,155.94 131.65,74.71 228.76,80.43 351.3,142.89l43.58 4.47 -2.31 -37.38c-181.75,-39.77 -644.45,-269.44 -697.33,-330.96 -79.41,6.02 -72.83,-67.25 -140.32,-29.29 43.08,77.78 61.1,20.09 123.25,94.33z"/>
  <path class="p-fil11" d="M5356.84 2201.32c-18.11,19.47 -56.19,58.02 -56.19,-9.97 -36.17,-20.06 -69.47,-28.05 -114.26,-23.66 -26.77,1.94 -31.24,15.63 -71.38,-4.29 -46.32,-22.98 -16.13,-1.32 -33.53,-42.39 -42.47,-27.06 -22.15,-16.56 -81.07,-10.9 66.38,116.48 76.9,53.18 226.97,121.27 3.52,-4.12 10.03,6.5 14.44,10.49 -79.57,12.44 -100.24,16.04 -174.09,-9.34 -15.42,21.41 -3.71,25.96 -15.62,3.72 39.25,27.26 87.24,62.07 169.2,44.23 80.18,-17.45 48.58,-60.55 178.63,-52.38 21.04,-45.2 8.32,-194.99 3.84,-210.56l-15.77 -29.68c-6.57,56.41 20.1,19.57 -12.2,43.34l-19.48 -28.42c-28.23,-1.76 -22.47,-9.22 -22.19,16.98 14.12,23.99 23.54,42.36 34.28,75.83 1.44,4.47 13.24,52.41 13.22,53.27 -1.2,49.65 11.21,27.75 -24.8,52.46z"/>
  <path class="p-fil12" d="M6143.59 2540.37c-12.78,47.28 -4.52,32.33 -46.51,62.14l-3.04 32.14c88.56,11.74 135.49,24.84 136.13,-59.38 -11.17,-49.59 -19.83,-46.61 -52.92,-69.9l-33.66 35z"/>
  <path class="p-fil13" d="M5898.52 2451.34l11.23 5.09 48.5 -14.76c-2.98,-2.08 -6.66,-10.11 -7.84,-7.58l-25.64 -24.13c73.02,-19.6 182.15,-27.06 229.96,30.99l84.4 32.71c-32.8,-73.74 -69.76,-122.17 -178.91,-115.84 -83.82,4.85 -149.3,48.12 -204.36,68.44 29.29,40.58 -40.79,61.65 42.66,25.08z"/>
  <path class="p-fil13" d="M4891.54 1918.29l32.78 0.31 12.36 -1.3 0 -19.19c-34.26,-8.31 -19.95,6.12 -29.49,-24.22 63.02,-14.63 140.71,-23.17 207.9,-6.72 63.25,15.49 99.67,56.99 142.31,81.52 40.18,21.5 28.36,18.57 76.74,71.07 -0.28,-26.2 -6.04,-18.74 22.19,-16.98 -25.85,-45.02 -39.55,-40.66 -121.52,-86.03 23.49,-19.23 -8.03,-9.65 32.95,-9.14 -38.1,-58.67 -51.34,-29.49 -90.33,-74.9l-110.71 -19.72 -199.06 -4.13c5.43,60.67 4.12,4.24 13.43,40.67 4.26,16.71 4.82,40.51 10.45,68.76z"/>
  <path class="p-fil0" d="M3938.33 3259.01c38.04,97.53 107.56,176.81 158.45,282.13 23.65,48.94 118.04,265.35 140.24,287.7 71.55,35.97 2.32,6.18 48.36,30.52 24.87,13.16 39,-1.99 39.05,-6.85 44.81,203.4 69,75.89 70.46,74.48 -22.89,-61.93 -40,-49.37 -21.55,-103.42 50.74,-23.56 75.83,17.11 106.12,44.19 83.63,34.72 25.67,19.74 41.59,-17.33 -105.46,-74.66 -214.47,-167.49 -294.39,-262.93 -39.92,-47.67 -82.53,-106.49 -117.2,-160.09 -35.07,-54.2 -73.64,-122.95 -111.06,-168.24 -21.3,23.66 -24.24,22.39 -60.07,-0.16z"/>
  <path class="p-fil0" d="M5077.85 722.27c53.33,-42.19 63.73,-97.46 142.55,-159.82 217.09,-171.74 656.3,250.68 995.63,436.77l400.81 215.3c-22.1,-273.72 -280.11,-643.57 -487.59,-798.58 -484.95,-362.33 -1411.86,-314.88 -1587.9,125.01 -43.68,24.66 -221.01,273.63 -251.7,356.24 -154.75,241.1 51.79,85.83 -0.99,469.87l-45.26 -84.4c10.16,68.88 10.36,45.98 30.04,98.96 24.55,66.1 9.47,51.95 10.73,124.01 41.92,18.22 27.49,16.75 43.83,32.08 75.11,-29 82.78,-82.11 128.23,-145.63 43.93,-61.4 83.75,-107.68 139.98,-153.07 153.39,-123.81 297.72,-68.4 407.76,-176.15l4.16 -37.36 70.52 -191.94c-45.13,-17.47 -22.38,1.15 -19.21,-49.78 0.41,-6.46 15.04,-41.38 18.41,-61.51z"/>
  <path class="p-fil14" d="M6463.1 2307.89c1.76,6.01 1.5,15.19 2.47,18.61l23.61 28.7 29.91 -63.49c-28.47,23.06 -12.66,-28.33 -26.1,26.5l-29.89 -10.32z"/>
  <path class="p-fil14" d="M5356.33 2002.78l19.48 28.42c32.3,-23.77 5.63,13.07 12.2,-43.34l-14.41 3.19 -13.13 -40.72c-45.52,-10.67 -44.41,-27.11 -92.71,-42.72 -40.98,-0.51 -9.46,-10.09 -32.95,9.14 81.97,45.37 95.67,41.01 121.52,86.03z"/>
  <path class="p-fil14" d="M5211.68 1990.13c29.14,-6 42.34,-18.32 46.97,18.95 47.31,31.92 63.92,79.61 84.03,150.2 27.63,19.75 14.91,-6.37 14.16,42.04 36.01,-24.71 23.6,-2.81 24.8,-52.46 0.02,-0.86 -11.78,-48.8 -13.22,-53.27 -10.74,-33.47 -20.16,-51.84 -34.28,-75.83 -48.38,-52.5 -36.56,-49.57 -76.74,-71.07l-45.72 41.44z"/>
  <path class="p-fil14" d="M5815.89 2303.81c-92.99,159.45 -51.32,150.08 -62.89,335.07l25.86 43.17 19.24 -44.79c-11.13,-74.36 -6.94,-185.89 26.88,-247.4 22.76,-58.91 39.36,-51.43 76.49,-98.39l18.64 -30.63 -38.96 5.34c-27.85,13.28 -3.84,2.65 -32.79,20.84 -32.75,20.57 -9.11,9.83 -32.47,16.79z"/>
  <path class="p-fil14" d="M5155.43 2809.26c99.94,24.89 99.6,-28.87 191.52,79.79 41.75,49.36 0.09,22.23 63.36,45.08 -17.95,-128.91 -37.69,-82.21 -92.18,-157.28 -40.43,0.64 -124.36,-10.62 -156.97,-19.73 -24.31,-102.91 20.82,-117.71 52.51,-184.15 -123,24.91 -145.49,166.49 -58.24,236.29z"/>
  <path class="p-fil14" d="M5729.69 2971.36c-120.68,-12.11 -150.72,33.65 -274.15,-2.52 -47,4.8 -17.34,-14.72 -40.11,13.19l68.07 53.35 -70.72 -11.92 4.75 22.44 180.71 11.94c-14.82,-53.93 -9.48,-22.9 25.94,-31.49 58.39,-14.16 41.27,10.7 41.41,10.78 48.29,26.8 -13.24,25.35 91.7,38.45 34.18,-32.67 63.1,-40.04 79.67,-86.08 19.54,-54.31 -0.42,-104.9 -11.55,-154.2l-20.23 -45.28c-65.48,53.75 81.23,215.41 -125.61,235.81 41.42,-23.22 31.56,-7.58 50.12,-54.47z"/>
  <path class="p-fil15" d="M5797.27 2714.65c-16.59,-15.54 -1.58,-31.23 0.83,-77.39l-19.24 44.79 -25.86 -43.17c5.38,71.71 -8.51,64.93 44.27,75.77z"/>
  <path class="p-fil15" d="M5935.27 2636.69c31.09,45.33 12.98,24.87 62.39,54.12 11.99,25.29 -6.8,2.88 21.88,31.08l64.79 5.13c-22.95,-33.46 3.06,-6.72 -27,-35.31 -38.06,-36.21 -48.75,-10.27 -123.22,-84.86l1.16 29.84z"/>
  <path class="p-fil16" d="M5884.88 2469.75l20.11 37.73 36.81 -1.65 -1.88 -33.32c-10.86,-23.23 10.28,-19.85 -30.17,-16.08l-11.23 -5.09 -13.64 18.41z"/>
  <path class="p-fil17" d="M6349.04 2780.89c13.55,-16.16 2.82,8.41 26.72,-39.9 5.73,-11.59 14.47,-35.52 20.55,-49 -43.07,28.09 -35.85,33.12 -47.27,88.9z"/>
  <path class="p-fil18" d="M4983.94 1991.07l-43.58 2.85c9.52,63.04 -2.5,9.11 24.16,34.86l19.42 -37.71z"/>
  <path class="p-fil18" d="M5300.65 2191.35c0,67.99 38.08,29.44 56.19,9.97 0.75,-48.41 13.47,-22.29 -14.16,-42.04l3.76 36.08 -45.79 -4.01z"/>
  <path class="p-fil18" d="M5186.39 2167.69c-3.03,-2.65 -7.55,-5.29 -9.68,-7.22l-42.16 -50.33 -53.07 10.87c17.4,41.07 -12.79,19.41 33.53,42.39 40.14,19.92 44.61,6.23 71.38,4.29z"/>
  <path class="p-fil18" d="M4879.43 3290.74c36.97,76.6 266.44,237.58 412.41,238.21l207.04 -15.23c27.49,-41.73 -21.53,-17.53 48.31,-80.78 -122.54,-62.46 -219.65,-68.18 -351.3,-142.89 -70.02,-39.74 -243.39,-148.32 -321.83,-155.94 -83.37,27.55 -19.64,131.55 -3.2,148.68 1.71,1.79 6.15,4.9 8.57,7.95z"/>
  <path class="p-fil19" d="M6116.76 2511.21l-7.33 -37.94 -32.26 11.3c9.72,26.11 -24.04,30.11 39.59,26.64z"/>
  <path class="p-fil20" d="M5939.92 2472.51l18.33 -30.84 -48.5 14.76c40.45,-3.77 19.31,-7.15 30.17,16.08z"/>
  <polygon class="p-fil20" points="6145.67,2507.9 6143.59,2540.37 6177.25,2505.37 6156.87,2480.37 "/>
  <path class="p-fil20" d="M5212.78 2037.16c2.48,-3.21 5.85,-12.77 7.38,-9.68 1.43,2.9 6.17,-6.99 8.12,-8.06 31.39,-17.22 -14.3,-3.88 30.37,-10.34 -4.63,-37.27 -17.83,-24.95 -46.97,-18.95l1.1 47.03z"/>
  <path class="p-fil20" d="M5001.4 1936.15l13.93 -39.45 -78.65 1.41 0 19.19c81.78,-17.42 42.02,-13.52 64.72,18.85z"/>
  <path class="p-fil21" d="M4949 2986.35c139.06,-11.59 266.53,17.38 382.41,86.91l17.38 17.38c11.59,17.39 28.97,23.18 52.15,17.39 34.76,5.79 55.04,14.48 60.84,26.06l17.38 8.7c28.97,11.59 55.04,28.97 78.22,52.15l17.38 8.69 60.84 78.22 17.38 17.38 17.38 43.46c-23.17,5.79 -40.56,-2.91 -52.15,-26.08l-78.22 -52.15 -8.69 -8.69 -52.15 -34.77 -69.52 -26.07 0 -17.38 -26.08 -8.7 -78.22 -26.07 -26.07 -17.38 -112.99 -43.46c-69.52,-28.96 -141.95,-52.14 -217.27,-69.52l0 -26.07z"/>
 </svg>
  </g>
  <g filter="url(#inlay)">
    <svg width="480" height="720" viewBox="0 -700 6800 10200" preserveAspectRatio="xMaxYMin slice">
      <g class="hood-print" transform="translate(4400 7450) rotate(-6) scale(1.1)">
        <text y="-320">CODE</text><text y="0">TRAIN</text><text y="320">SHIP</text>
        <text class="hood-print-small" y="540">EST 2018</text>
      </g>
      <g class="hood-cord-sway">
        <path class="hood-string" d="M4640 4470C4620 4950 4700 5500 4700 5900"/>
        <rect class="hood-aglet" x="4655" y="5860" width="90" height="250" rx="40"/>
      </g>
      <g class="hood-cord-sway hood-cord-late">
        <path class="hood-string" d="M4870 4450C4860 4900 4930 5300 4930 5680"/>
        <rect class="hood-aglet" x="4885" y="5640" width="90" height="250" rx="40"/>
      </g>
      <svg x="1990" y="180" width="1250" height="1250" viewBox="9 8 46 46" overflow="visible">
        <g filter="url(#mark-raise)">
          <path class="leg-left" d="M28.6 17.4 33.8 19.4 18.4 52.6Z" fill="url(#mark-steel-bright)"/>
          <path class="leg-right" d="M35.4 17.4 30.2 19.4 45.6 52.6Z" fill="url(#mark-steel-bright)"/>
          <path class="arc" d="M22.4 37.6Q32 43.4 41.6 37.6" fill="none" stroke="url(#mark-gold-bright)" stroke-width="3.4" stroke-linecap="round"/>
          <circle cx="32" cy="15" r="6" fill="url(#mark-gold-bright)"/>
          <circle cx="32" cy="15" r="2" fill="#5a4210"/>
        </g>
      </svg>
    </svg>
  </g>
</g>
<rect x="0.5" y="0.5" width="479" height="719" rx="26" fill="none" stroke="#000" stroke-opacity="0.6"/>
</svg>
